<svg xmlns="http://www.w3.org/2000/svg" viewBox="0 0 128.28 127.71"><defs><linearGradient id="a" x1="42.34" x2="84.59" y1="93.08" y2="93.08" gradientTransform="matrix(1 0 0 -1 0 129.52)" gradientUnits="userSpaceOnUse"><stop offset="0" stop-color="#29b5d9"/><stop offset=".06" stop-color="#28a2c2"/><stop offset=".19" stop-color="#25768f"/><stop offset=".32" stop-color="#235367"/><stop offset=".43" stop-color="#213a4a"/><stop offset=".53" stop-color="#202b38"/><stop offset=".61" stop-color="#202632"/></linearGradient><linearGradient id="b" x1="18.21" x2="103.81" y1="48.73" y2="72.53" gradientTransform="matrix(1 0 0 -1 0 129.52)" gradientUnits="userSpaceOnUse"><stop offset=".09" stop-color="#1d2a3c"/><stop offset=".38" stop-color="#952262"/><stop offset=".73" stop-color="#f62154"/><stop offset=".82" stop-color="#fa3651"/><stop offset=".93" stop-color="#fe484e"/><stop offset="1" stop-color="#ff4f4d"/></linearGradient><linearGradient id="c" x1="19.45" x2="103" y1="59.83" y2="66.73" gradientTransform="matrix(1 0 0 -1 0 129.52)" gradientUnits="userSpaceOnUse"><stop offset="0" stop-color="#1e2632" stop-opacity="0"/><stop offset=".66" stop-color="#252833" stop-opacity=".03"/><stop offset="1" stop-color="#fb4f18" stop-opacity=".6"/></linearGradient><linearGradient id="d" x1="57.35" x2="90.98" y1="14.7" y2="102.57" gradientTransform="matrix(1 0 0 -1 0 129.52)" gradientUnits="userSpaceOnUse"><stop offset="0" stop-color="#1e2632" stop-opacity="0"/><stop offset=".66" stop-color="#252833" stop-opacity=".03"/><stop offset="1" stop-color="#4c3e3c"/></linearGradient><linearGradient id="e" x1="15.49" x2="91.34" y1="67.29" y2="67.11" gradientTransform="matrix(1 0 0 -1 0 129.52)" gradientUnits="userSpaceOnUse"><stop offset="0" stop-color="#1d728f"/><stop offset=".43" stop-color="#3d7684"/><stop offset=".77" stop-color="#cd6a70"/><stop offset="1" stop-color="#f4b800" stop-opacity=".8"/></linearGradient><linearGradient id="f" x1="-38" x2="29.85" y1="-60.95" y2="-61.11" gradientTransform="matrix(.92033 -.13377 -.14384 -.9896 49.35 .31)" gradientUnits="userSpaceOnUse"><stop offset="0" stop-color="#29b5d9"/><stop offset=".34" stop-color="#2bb5dc"/><stop offset=".73" stop-color="#a0c8a2" stop-opacity=".9"/><stop offset=".77" stop-color="#a6cca8" stop-opacity=".74"/><stop offset=".84" stop-color="#b8d6b9" stop-opacity=".53"/><stop offset=".91" stop-color="#d5e7d6" stop-opacity=".28"/><stop offset="1" stop-color="#fdfefd" stop-opacity=".01"/><stop offset="1" stop-color="#fff" stop-opacity="0"/></linearGradient><linearGradient id="g" x1="93.81" x2="89.09" y1="109.34" y2="50.92" gradientTransform="matrix(.89987 .01555 -.01556 -1.00042 -20 134.38)" gradientUnits="userSpaceOnUse"><stop offset=".22" stop-color="#c7cd67"/><stop offset=".27" stop-color="#cfd47c" stop-opacity=".93"/><stop offset=".38" stop-color="#dee1a4" stop-opacity=".79"/><stop offset=".49" stop-color="#eaecc5" stop-opacity=".65"/><stop offset=".61" stop-color="#f3f4df" stop-opacity=".5"/><stop offset=".73" stop-color="#fafaf1" stop-opacity=".34"/><stop offset=".86" stop-color="#fefefb" stop-opacity=".18"/><stop offset="1" stop-color="#fff" stop-opacity="0"/></linearGradient><linearGradient id="h" x1="42.43" x2="85.21" y1="92.14" y2="92.14" gradientTransform="matrix(1 0 0 -1 0 129.52)" gradientUnits="userSpaceOnUse"><stop offset="0" stop-color="#29b5d9"/><stop offset=".03" stop-color="#29aed0"/><stop offset=".18" stop-color="#288ca9"/><stop offset=".33" stop-color="#287088"/><stop offset=".48" stop-color="#275a6e"/><stop offset=".64" stop-color="#274a5c"/><stop offset=".81" stop-color="#274152"/><stop offset="1" stop-color="#273e4e"/></linearGradient><linearGradient id="i" x1="410.91" x2="437.11" y1="308.87" y2="308.87" gradientTransform="scale(1 -1)rotate(-38.83 -251.147 607.547)" gradientUnits="userSpaceOnUse"><stop offset=".23" stop-color="#0f1f29"/><stop offset="1" stop-color="#95775b" stop-opacity="0"/></linearGradient><linearGradient id="j" x1="33.08" x2="82.82" y1="69.65" y2="69.65" gradientTransform="matrix(1 0 0 -1 0 129.52)" gradientUnits="userSpaceOnUse"><stop offset=".27" stop-color="#38d1d5"/><stop offset="1" stop-color="#4b5b60"/></linearGradient><linearGradient id="k" x1="83.73" x2="101.71" y1="107.23" y2="69.77" gradientTransform="matrix(1 0 0 -1 0 129.52)" gradientUnits="userSpaceOnUse"><stop offset=".09" stop-color="#1d2a3c"/><stop offset=".38" stop-color="#242734"/><stop offset=".64" stop-color="#972154" stop-opacity="0"/><stop offset=".66" stop-color="#9e2454" stop-opacity="0"/><stop offset=".77" stop-color="#c83751" stop-opacity="0"/><stop offset=".86" stop-color="#e6444f" stop-opacity="0"/><stop offset=".94" stop-color="#f84c4d" stop-opacity="0"/><stop offset="1" stop-color="#ff4f4d" stop-opacity="0"/></linearGradient></defs><path fill="#202632" d="M101.5 127.71H26.78C12.05 127.71 0 115.66 0 100.93V26.78C0 12.05 12.05 0 26.78 0h74.72c14.73 0 26.78 12.05 26.78 26.78v74.14c0 14.74-12.05 26.79-26.78 26.79Z"/><path fill="url(#a)" d="M84.59 27.38c-5.96-3.43-13.44-5.47-21.55-5.47-7.39 0-14.25 1.69-19.92 4.59l-.78 16.56 24.2 7.91 17.04-8.52 1.01-15.07Z" opacity=".3"/><path fill="url(#b)" d="M20.8 79.79c6.71 14.81 22.43 25.2 40.75 25.2 24.43 0 44.23-18.47 44.23-41.26 0-17.09-10.94-31.62-26.82-37.89l.37 16.93-35.82 10.15"/><path fill="url(#c)" d="M30.58 92.9c8 7.47 19.04 12.08 31.24 12.08 24.4 0 44.18-18.47 44.18-41.26 0-17.29-10.82-31.77-26.97-37.91l-27.2 38.43"/><path fill="url(#d)" d="M35.1 96.49c7.41 5.33 16.67 8.5 26.72 8.5 24.28 0 43.56-18.48 43.95-41.26.3-17.51-10.27-31.15-26.77-37.94l-8.26 20.1-28.19 25.38"/><path fill="url(#e)" d="m83.51 32.41-9.93.97-25.12-1.72-4.3-6.46c-15.17 5.5-24.54 19.03-24.54 35.57 0 21.32 17.94 38.61 40.08 38.61s40.08-17.29 40.08-38.61c0-11.9-7.49-21.28-16.27-28.36"/><path fill="url(#f)" d="M92.69 55.76c2.55 17.34-10.21 33.53-28.52 36.15-18.3 2.63-35.21-9.3-37.76-26.64s10.22-33.53 28.52-36.16c18.3-2.63 35.21 9.31 37.76 26.65"/><path fill="url(#g)" d="m50.95 44.25 25.29-.58 3.25-3.9-1.69-3.12c7.12 4.87 12.95 11.04 14.3 20.2 2.57 17.43-9.6 33.61-27.17 36.14-17.57 2.52-33.89-9.57-36.46-27"/><path fill="url(#h)" d="M85.21 33.18c-5.24-3.77-12.91-6.15-21.46-6.15s-15.6 2.19-20.82 5.7c0 0-.9 11.55-.29 11.75s23.54 3.25 23.54 3.25l15.32-5.38z"/><path fill="url(#i)" d="M98.85 54.02c-1.33-6.63-6.66-14.44-13.15-19.72-6.36-5.18 3.04 3.71-3.23 3.17 0 0-2.65 2.92-2.31 3.46.35.54-2.86 11.99-2.86 11.99l14.67 10.9 6.88-9.8Z" opacity=".72"/><path fill="url(#j)" d="M82.82 40.44c-5.27-4.97-12.56-8.04-20.6-8.04-16.09 0-29.14 12.3-29.14 27.47s13.05 27.47 29.14 27.47c4.35 0 7.28-.85 10.98-2.46l-2.32-30.34 11.94-14.1Z" opacity=".58"/><path fill="url(#k)" d="M82.13 32.77s9.32 3.03 16.19 18.82l6.72 3.51S101.25 35 81.67 26.89l.46 5.88Z"/><path fill="#fff" d="m54.45 40.92 1.23-3.29c.26-.7 1.07-1.04 1.76-.73 1.2.54 2.97 1.67 4.16 3.9.3.56 1.09.61 1.48.1 1.13-1.48 3.16-3.8 5.11-4.28.45-.11.93.1 1.17.49.41.67 1.01 1.9 1.1 3.55.04.7.78 1.13 1.43.85 2.47-1.08 7.48-2.71 10.79.02.94.77 1 2.19.16 3.07-.83.87-1.83 2.06-2.32 3.16-.28.62.25 1.3.93 1.21 1.91-.26 5.59-.38 7.54 2.01.62.76.59 1.85-.03 2.61-.76.92-2.13 2.16-4.49 3.11 0 0 5.41 2.35 7.35 5.58.48.79-.04 1.8-.96 1.94-1.07.16-2.47.41-3.6.77a.96.96 0 0 0-.36 1.62c1.22 1.15 3.18 3.12 4.22 4.85.45.75-.2 1.67-1.07 1.5-.8-.15-1.74-.31-2.53-.39a.964.964 0 0 0-1.03 1.19c.42 1.64.84 4.58-1.05 6.04 0 0-1.86 1.66-6.99-.61-.6-.27-1.3.02-1.55.62-.89 2.13-3.08 6.48-6.22 6.55 0 0-2.54 1.17-7.22-4.86-.47-.6-1.4-.58-1.83.04-1.4 2.02-4.34 5.49-7.53 4.53 0 0-3.68.26-5.53-6.8a.899.899 0 0 0-1.26-.58c-2.17 1.03-7.24 3-8.74-.03 0 0-.48-1.97-.05-4.98.07-.47-.32-.88-.8-.86l-2.77.14a.84.84 0 0 1-.71-1.36c1.15-1.42 2.93-3.54 4.19-4.72a.92.92 0 0 0-.26-1.52c-.75-.34-2.03-.76-4.21-1.21-.6-.13-.91-.8-.59-1.32.93-1.54 2.96-4.29 6.18-5.34.55-.18.68-.88.24-1.25-.86-.72-2.15-1.8-3.65-2.96-.73-.57-.81-1.63-.17-2.29 1.3-1.34 3.76-3.09 7.3-2.24.63.15 1.16-.48.91-1.06-.39-.92-1.12-2.24-2.45-3.89-.46-.57-.43-1.39.06-1.93 1.19-1.3 4.2-2.94 11.38-.34.52.16 1.09-.1 1.28-.61ZM37.41 41.06c-.43-4.02-.4-11.19 3.12-15.01 1.04-1.13 2.83-1.38 4.17-.56 2.11 1.29 5.32 3.57 6.86 6.25.8 1.4.2 3.15-1.33 3.91-2.33 1.17-5.51 1.74-10.17 6.69-1.05 1.11-2.5.16-2.65-1.28"/><path fill="#fff" d="M73.58 32.19s4.7-8.34 9.01-7.45c0 0 2.93.39 4.34 8.16 0 0 1.05 4.92.43 9.19 0 0-1.3 2.25-3.11-.21 0 0-3.91-3.92-9.33-6.52 0 0-2.75-.75-1.34-3.17Z"/><ellipse cx="53.18" cy="54.59" fill="#374d64" rx="3.38" ry="3.33"/><ellipse cx="71.17" cy="54.59" fill="#374d64" rx="3.38" ry="3.33"/><path fill="#374d64" d="M55.62 70.12c-1.04 0-2.28-.18-3.32-.84-1.11-.7-1.79-1.79-2.05-3.25-.07-.41.21-.8.63-.87.42-.07.82.21.89.62.18 1.03.62 1.76 1.36 2.23 1.67 1.06 4.27.4 4.3.4.02 0 .04-.01.05-.01 2-.37 3.32-1.53 3.93-3.44.48-1.51.32-2.94.32-2.96-.05-.42.26-.79.68-.84.42-.05.8.25.85.66.28 2.37-.51 7.11-5.47 8.05-.19.05-1.07.25-2.17.25"/><path fill="#374d64" d="M69.34 70.12c-1.11 0-1.99-.2-2.17-.25-4.96-.94-5.74-5.67-5.47-8.05.05-.42.43-.71.85-.67.42.05.72.42.68.84s-.16 1.45.32 2.96c.6 1.91 1.93 3.06 3.93 3.44.02 0 .04.01.06.01.02.01 2.62.66 4.29-.4.73-.47 1.18-1.2 1.36-2.23.07-.41.47-.69.89-.62s.7.46.63.87c-.25 1.46-.94 2.55-2.05 3.25-1.05.67-2.28.85-3.32.85Z"/><path fill="#fb5430" d="M63.97 62.81h-3.4a3.34 3.34 0 0 1-3.34-3.34v-.16c0-1.77 1.44-3.21 3.21-3.21h3.67c1.77 0 3.21 1.44 3.21 3.21v.16c0 1.85-1.51 3.34-3.35 3.34Z"/><path fill="#fb5430" d="M58.24 61.8s3.87 3.23 8.03-.04l-8.03.04Z"/></svg>